<?xml version="1.0" standalone="no"?>
<!DOCTYPE svg PUBLIC "-//W3C//DTD SVG 1.1//EN" "http://www.w3.org/Graphics/SVG/1.1/DTD/svg11.dtd" >
<!--
2013-9-30: Created.
-->
<svg>
<metadata>
Created by iconfont
</metadata>
<defs>

<font id="iconfont" horiz-adv-x="1024" >
  <font-face
    font-family="iconfont"
    font-weight="500"
    font-stretch="normal"
    units-per-em="1024"
    ascent="896"
    descent="-128"
  />
    <missing-glyph />
    
    <glyph glyph-name="woshou" unicode="&#59018;" d="M519.444 473.326c-29.775 22.332-48.385 18.61-74.439-11.166-22.332-26.053-44.664-48.385-78.161-55.83-29.775-7.444-55.83 0-81.883 18.61-18.61 14.888-22.332 33.498-11.166 52.107 11.166 22.332 22.332 40.941 29.775 63.273 14.888 26.053 3.722 44.664-22.332 44.664-18.61 0-22.332-14.888-26.053-26.053-14.888-37.219-81.883-200.985-100.492-245.649-11.166-29.775 14.888-40.941 33.498-55.83 7.444-7.444 14.888-7.444 26.053 0 26.053 29.775 59.551 29.775 85.605-3.722 3.722-3.722 7.444-7.444 11.166-3.722 33.498 7.444 52.107-11.166 66.995-37.219 0-3.722 7.444-7.444 11.166-7.444 40.941 3.722 66.995-18.61 70.717-59.551 3.722-14.888 7.444-18.61 18.61-22.332 29.775-11.166 44.664-37.219 37.219-70.717-3.722-11.166-7.444-18.61-7.444-29.775-3.722-14.888 0-22.332 14.888-22.332 14.888-3.722 26.053 0 37.219 11.166 11.166 7.444 11.166 11.166 0 18.61-7.444 7.444-14.888 11.166-26.053 18.61-3.722 0-3.722 3.722-3.722 7.444 0 0 3.722 3.722 3.722 3.722 3.722-3.722 7.444-3.722 11.166-7.444 11.166-7.444 22.332-14.888 33.498-22.332 29.775-18.61 74.439 0 81.883 33.498 3.722 11.166 0 14.888-7.444 22.332-18.61 14.888-37.219 26.053-52.107 40.941-3.722 3.722-3.722 7.444-3.722 11.166 3.722 0 7.444 0 11.166 0 18.61-14.888 37.219-29.775 55.83-44.664 29.775-26.053 52.107-29.775 78.161-7.444 14.888 11.166 18.61 26.053 18.61 40.941 0 11.166-11.166 14.888-14.888 22.332-3.722 3.722-11.166 7.444-14.888 11.166-29.775 22.332-59.551 44.664-85.605 66.995-7.444 3.722-11.166 11.166-3.722 14.888 3.722 3.722 11.166 0 14.888-3.722 22.332-14.888 40.941-33.498 63.273-48.385 14.888-11.166 26.053-22.332 40.941-29.775 18.61-11.166 40.941-7.444 55.83 7.444 18.61 14.888 22.332 40.941 14.888 63.273-18.61 22.332-37.219 44.664-312.643 241.926v0zM835.809 402.61c-18.61 59.551-37.219 119.102-59.551 174.932-3.722 7.444-11.166 18.61-18.61 18.61-78.161 29.775-245.649 89.326-249.37 89.326-3.722 0-89.326-22.332-133.99-37.219-22.332 0-33.498-11.166-33.498-33.498 0-37.219 3.722-89.326-18.61-119.102-3.722-3.722-3.722-7.444-7.444-14.888-7.444-14.888-3.722-29.775 11.166-37.219 7.444-3.722 22.332-7.444 29.775-3.722 14.888 3.722 26.053 11.166 40.941 14.888 22.332 11.166 37.219 29.775 40.941 55.83 0 14.888 18.61 14.888 26.053 18.61 26.053 7.444 44.664 3.722 66.995-11.166 18.61-14.888 37.219-26.053 52.107-40.941 63.273-48.385 126.547-96.77 193.541-145.156 14.888-11.166 33.498-22.332 48.385-33.498 11.166-7.444 22.332-7.444 29.775 3.722 7.444 7.444 11.166 18.61 7.444 29.775-7.444 22.332-14.888 48.385-26.053 70.717v0zM508.278 692.922c0 0 0 0 0 0s0 0 0 0v0zM229.132 596.151c3.722 3.722-3.722 7.444-11.166 11.166-26.053 11.166-48.385 22.332-74.439 33.498-7.444 3.722-14.888 0-22.332-7.444 18.61 40.941-59.551-137.711-111.658-271.702-3.722-11.166 0-14.888 7.444-18.61 26.053-11.166 48.385-22.332 74.439-29.775 11.166-3.722 18.61 0 22.332 11.166 7.444 22.332 18.61 44.664 26.053 66.995 29.775 59.551 55.83 122.824 81.883 186.098 3.722 3.722 7.444 11.166 7.444 18.61v0zM1010.741 354.225c0 3.722-3.722 7.444-3.722 11.166-14.888 40.941-29.775 85.605-40.941 126.547-14.888 40.941-29.775 85.605-40.941 130.268-3.722 18.61-7.444 18.61-26.053 14.888-22.332-7.444-40.941-14.888-63.273-22.332-22.332-7.444-22.332-11.166-14.888-33.498 18.61-55.83 37.219-107.936 52.107-163.766 11.166-29.775 18.61-59.551 29.775-89.326 3.722-7.444 7.444-14.888 18.61-11.166 26.053 7.444 55.83 18.61 81.883 26.053 7.444 3.722 7.444 3.722 7.444 11.166v0zM430.117 86.244c-3.722 0-3.722 0-7.444-3.722 22.332 66.995-22.332 100.492-70.717 74.439 3.722 18.61-3.722 37.219-18.61 48.385-14.888 11.166-33.498 11.166-52.107 0-7.444 26.053-22.332 40.941-40.941 37.219-18.61 0-33.498-26.053-29.775-52.107 3.722-18.61 18.61-29.775 48.385-26.053 3.722-59.551 22.332-70.717 74.439-52.107-3.722-22.332-3.722-44.664 14.888-59.551 22.332-14.888 40.941-11.166 63.273 7.444 0-7.444-3.722-14.888-3.722-22.332 0-18.61 7.444-29.775 22.332-37.219 11.166-3.722 29.775-3.722 37.219 11.166 7.444 11.166 11.166 22.332 14.888 37.219 3.722 29.775-22.332 52.107-52.107 37.219v0zM430.117 86.244z"  horiz-adv-x="1024" />

    
    <glyph glyph-name="jingxuan" unicode="&#58968;" d="M501.548272-36.826817 318.3312 501.286667C313.375066 514.07669 314.174443 528.305589 320.249704 540.456112 307.939307 545.57212 298.027039 555.484388 293.070906 568.754036L197.625363 829.990244C192.189604 844.858645 194.267981 861.64555 203.380873 874.595448 212.493764 887.545345 227.362165 895.379234 243.349694 895.379234L846.55913 895.379234C862.226904 895.379234 877.09531 887.705221 886.208199 874.915198 895.321088 862.125176 897.719216 845.498147 892.60321 830.789621L802.113803 570.033038C797.477416 556.763389 787.405278 546.371496 774.935006 541.095612 781.330017 528.785215 782.289266 514.236564 777.173259 501.126791L592.517308-36.986692C585.163042-56.01185 567.416889-68.162372 547.112727-68.162372 526.648691-68.162372 508.902535-55.851975 501.548272-36.826817ZM547.112727 0.583999 721.21691 511.358809 374.287549 511.358809 547.112727 0.583999ZM385.159068 567.315157 710.025637 567.315157 546.952852 816.24097 385.159068 567.315157 385.159068 567.315157ZM253.741587 839.582761 340.873616 601.528468 495.473013 839.582761 253.741587 839.582761 253.741587 839.582761ZM753.991344 602.167968 836.486986 839.58276 598.432694 839.582761 753.991344 602.167968ZM14.248417 567.315157 1072.462905 567.315157 1072.462905 511.518685 14.248417 511.518685 14.248417 567.315157 14.248417 567.315157ZM487.159497-55.212476 22.721805 489.775646C-2.858239 516.794568-7.174872 557.722641 12.170036 589.377946L175.722449 856.369665C190.590851 880.670708 217.449898 895.698985 245.907698 895.698985L844.161001 895.698985C872.778672 895.698985 899.797595 880.510833 914.665995 855.890039L1075.340658 588.89832C1094.205941 557.562765 1089.889308 516.954444 1064.788884 490.255272L606.746209-54.892726C591.238303-71.359881 569.335393-80.792519 546.792977-80.792519 524.090687-80.792519 502.827275-71.67963 487.159497-55.212476ZM223.365284 827.272365 59.812871 560.280646C53.577735 550.048627 55.016613 536.938855 63.170252 528.305589L527.607943-16.842411C532.564077-22.118292 539.438714-24.996045 546.633102-24.996045 553.987364-24.996045 560.862001-22.118292 565.818135-16.68253L1023.860816 528.465465C1031.854581 537.09873 1033.29346 550.048627 1027.218199 560.120771L866.543536 827.11249C861.74728 834.946379 853.114015 839.902512 844.001126 839.902512L245.907699 839.902512C236.794807 839.902512 228.161542 835.106254 223.365284 827.272365Z"  horiz-adv-x="1138" />

    
    <glyph glyph-name="fenlei" unicode="&#58881;" d="M145.728 625.728l207.616 0c18.688 0 33.728 15.104 33.728 33.792 0 18.688-15.04 33.728-33.728 33.728L145.728 693.248c-18.624 0-33.728-15.04-33.728-33.728C112 640.896 127.104 625.728 145.728 625.728zM145.728 324.736l236.096 0c18.624 0 33.728 15.04 33.728 33.728 0 18.624-15.104 33.728-33.728 33.728L145.728 392.192c-18.624 0-33.728-15.104-33.728-33.728C112 339.776 127.104 324.736 145.728 324.736zM829.504 99.136 145.728 99.136c-18.624 0-33.728-15.04-33.728-33.664 0-18.688 15.104-33.792 33.728-33.792l683.776 0c18.624 0 33.664 15.104 33.664 33.792C863.168 84.032 848.128 99.136 829.504 99.136zM902.656 302.336l-73.6 76.992c31.488 37.824 50.432 86.336 50.432 139.2 0 120.128-97.664 217.856-217.856 217.856S443.648 638.656 443.648 518.528c0-120.128 97.792-217.856 217.984-217.856 42.944 0 82.944 12.672 116.672 34.24l75.648-79.168c6.656-6.912 15.424-10.368 24.32-10.368 8.448 0 16.832 3.008 23.36 9.344C915.008 267.52 915.52 288.896 902.656 302.336zM661.632 368.064c-83.008 0-150.464 67.52-150.464 150.464 0 82.944 67.456 150.4 150.464 150.4 82.944 0 150.464-67.456 150.464-150.4C812.032 435.584 744.576 368.064 661.632 368.064z"  horiz-adv-x="1024" />

    
    <glyph glyph-name="gouwuchetianjia-copy-copy-copy" unicode="&#58994;" d="M746.529-12.387c0-36.486 29.578-66.065 66.065-66.065s66.065 29.578 66.065 66.065c0 36.486-29.578 66.065-66.065 66.065-36.486 0-66.065-29.578-66.065-66.065zM274.168-12.387c0-36.486 29.578-66.065 66.065-66.065s66.065 29.578 66.065 66.065c0 36.486-29.578 66.065-66.065 66.065-36.486 0-66.065-29.578-66.065-66.065zM782.865 790.297c-112.31 0-204.8-92.49-204.8-204.8s92.49-204.8 204.8-204.8c112.31 0 204.8 92.49 204.8 204.8 3.303 112.31-89.187 204.8-204.8 204.8zM782.865 433.548c-85.884 0-155.252 69.368-155.252 151.948 0 85.884 69.368 151.948 155.252 151.948s155.252-69.368 155.252-151.948c0-85.884-69.368-151.948-155.252-151.948zM363.355 241.961c0-13.213 13.213-23.123 26.426-23.123l508.697 42.942c13.213 0 23.123 13.213 23.123 26.426s-13.213 23.123-26.426 23.123l-508.697-42.942c-13.213 0-26.426-9.91-23.123-26.426zM855.535 611.923h-49.548v49.548c0 13.213-9.91 26.426-26.426 26.426s-26.426-9.91-26.426-26.426v-49.548h-49.548c-13.213 0-26.426-9.91-26.426-26.426 0-13.213 9.91-26.426 26.426-26.426h49.548v-49.548c0-13.213 9.91-26.426 26.426-26.426s26.426 9.91 26.426 26.426v49.548h49.548c13.213 0 26.426 9.91 26.426 26.426-3.303 13.213-13.213 26.426-26.426 26.426zM323.716 714.323h194.89c13.213 0 26.426 9.91 26.426 26.426 0 13.213-9.91 26.426-26.426 26.426h-194.89c-13.213 0-26.426-9.91-26.426-26.426s13.213-26.426 26.426-26.426zM898.477 146.168h-541.729c-29.729 0-59.458 26.426-66.065 52.852l-95.794 564.852c-9.91 52.852-59.458 95.794-115.613 95.794h-23.123c-13.213 0-26.426-9.91-26.426-26.426 0-13.213 9.91-26.426 26.426-26.426h23.123c29.729 0 59.458-23.123 66.065-52.852l95.794-564.852c9.91-52.852 59.458-95.794 115.613-95.794h541.729c13.213 0 26.426 9.91 26.426 26.426 0 13.213-13.213 26.426-26.426 26.426z"  horiz-adv-x="1024" />

    
    <glyph glyph-name="weixin" unicode="&#58989;" d="M512-128a512 512 0 1 0 512 512 512.561814 512.561814 0 0 0-512-512z m0 1004.242868a492.242868 492.242868 0 1 1 492.242868-492.242868A492.804682 492.804682 0 0 1 512 876.242868z m117.138259-417.053402a209.463058 209.463058 0 0 0 23.783467-1.498171c-21.442575 99.628383-127.812729 173.50695-249.164594 173.506949-135.771763 0-247.010973-92.605706-247.010973-210.118507 0-67.69861 37.454279-123.505486 98.879298-166.76518l-24.719824-74.253109 86.332114 43.353329a421.922458 421.922458 0 0 1 86.519385-12.359912c7.678127 0 15.44989 0 23.034382 0.936357a185.398683 185.398683 0 0 0-7.584491 51.686905c0 107.96196 92.605706 195.511339 210.024872 195.511339zM496.269203 526.13899a30.899781 30.899781 0 1 0 0-61.705925c-18.72714 0-37.454279 12.359912-37.45428 30.899781s18.72714 30.806145 37.45428 30.806144z m-172.757864-61.705925c-18.72714 0-37.454279 12.359912-37.45428 30.899781s18.72714 30.806145 37.45428 30.806144a30.899781 30.899781 0 0 0 0-61.705925zM854.613021 266.67447c0 98.785662-98.785662 179.312363-209.743965 179.312362-117.512802 0-210.212143-80.526701-210.212143-179.312362s92.605706-179.218727 210.212143-179.218727A308.997805 308.997805 0 0 1 718.934894 100.002926L786.539868 62.548647l-18.727139 61.705925c49.62692 37.454279 86.519386 86.613021 86.519385 142.232626z m-277.910753 30.89978a24.719824 24.719824 0 1 0 0 49.439649c18.72714 0 30.899781-12.359912 30.89978-24.719824s-12.266277-24.719824-30.89978-24.719825z m135.865398 0a24.719824 24.719824 0 0 0 0 49.439649c18.72714 0 30.993416-12.359912 30.993417-24.719824s-12.453548-24.719824-30.993417-24.719825z"  horiz-adv-x="1024" />

    
    <glyph glyph-name="xiaoxi" unicode="&#58902;" d="M359.29 448.414c-0.158 23.251-19.167 42.106-42.42 41.948-23.41 0-42.42-34.564-42.42-57.815s19.010-25.923 42.42-25.923c23.41-0.158 42.26 18.539 42.42 41.792zM847.114 791.069h-688.923c-69.285 0-109.504-40.377-109.504-109.978v-476.197c0-69.443 40.062-125.845 109.504-125.845h39.905c5.969 0 7.383 0.313 11.47 0.313 24.195-1.1 44.778 17.753 45.876 41.948v1.258c0 24.98-14.768 25.294-39.905 25.294-7.069 0-17.281-0.471-25.139-0.627h-24.037c-27.809 0-50.275 38.49-50.275 66.143v458.287c-0.313 28.436 21.839 52.159 50.275 53.731h673.526c28.436-1.571 50.589-25.294 50.275-53.731v-458.444c0-27.809-22.466-50.275-50.275-50.275h-355.222c-7.383-2.672-13.982-7.069-19.167-13.040l-158.837-159.308c-16.181-16.181-16.181-42.42 0-58.602s42.42-0.313 58.602 15.868l146.426 146.896h335.427c69.285-0.158 110.29 40.377 110.29 109.821v476.353c0 69.598-41.007 110.133-110.29 110.133zM679.951 406.154c23.41-0.158 42.578 18.853 42.733 42.26 0.313 23.568-18.695 42.891-42.26 43.205-23.568 0.313-42.891-18.695-43.205-42.26-0.313-23.568 18.695-42.891 42.26-43.205h0.471zM498.489 406.781c23.094 0.313 41.475 19.167 41.319 42.106-0.313 23.094-19.167 41.475-42.106 41.319-22.781-0.313-41.319-18.853-41.319-41.633 0-23.251 18.853-41.948 42.106-41.792z"  horiz-adv-x="1024" />

    
    <glyph glyph-name="huiyuan" unicode="&#59558;" d="M5.191 820.804h290.977v-72.671h-290.977v72.672zM78.010 754.668h218.16v-808.079h-218.16v808.079zM1020.603 820.804l-724.434-874.217-211.888 205.125 572.481 669.479z"  horiz-adv-x="1024" />

    
    <glyph glyph-name="Group" unicode="&#58895;" d="M1084.544 518.4c-9.856 30.4-39.04 51.2-79.872 57.152l-262.4 38.08L670.08 759.68a40.32 40.32 0 0 1-72.32-35.712l81.536-165.12c5.888-11.904 17.216-20.096 30.4-22.016l283.328-41.152c5.568-0.768 9.6-1.92 12.224-3.008a56.32 56.32 0 0 0-8.128-9.6l-205.056-199.68a40.32 40.32 0 0 1-11.584-35.712l48.448-281.984a54.528 54.528 0 0 0 0.896-12.544 53.76 53.76 0 0 0-11.584 4.672l-253.568 133.184a40.448 40.448 0 0 1-37.568 0l-161.92-85.12a40.256 40.256 0 0 1-16.96-54.4 40.512 40.512 0 0 1 54.528-16.896l143.104 75.264 234.88-123.456c18.432-9.6 36.736-14.464 53.568-14.464 16.576 0 31.744 4.608 44.48 13.888 25.856 18.752 36.608 52.8 29.696 93.44l-44.864 261.12 189.888 184.896c29.568 28.8 40.896 62.72 31.04 93.12M271.808-43.2a55.552 55.552 0 0 0-11.712-4.672 54.144 54.144 0 0 0 0.832 12.416l48.832 278.336a39.36 39.36 0 0 1-11.712 35.2L91.52 475.2a55.936 55.936 0 0 0-8.192 9.472 54.336 54.336 0 0 0 12.352 3.008l285.44 40.576a40.64 40.64 0 0 1 30.656 21.824l42.56 84.544 0.832 1.728 84.224 167.04a53.12 53.12 0 0 0 6.656 10.432 55.552 55.552 0 0 0 6.784-10.496 40.96 40.96 0 0 1 54.4-18.112 39.424 39.424 0 0 1 18.432 53.312C607.232 875.008 578.304 896 546.112 896c-32.192 0-61.184-20.928-79.616-57.408L382.4 671.744l-0.448-0.896-33.664-66.816-264.32-37.568C42.752 560.512 13.44 540.032 3.52 510.08c-9.92-29.952 1.472-63.424 31.232-91.904l191.296-182.4-45.184-257.856c-7.04-40.064 3.84-73.728 29.888-92.224 12.8-9.152 28.16-13.696 44.8-13.696 16.96 0 35.392 4.736 53.952 14.336 19.904 10.24 27.52 34.24 17.152 53.696a41.024 41.024 0 0 1-54.848 16.768"  horiz-adv-x="1088" />

    
    <glyph glyph-name="check-circle" unicode="&#59006;" d="M724.114286 457.142857L438.857143 171.885714c-14.628571-7.314286-36.571429-7.314286-51.2 0L226.742857 332.79999999999995c-7.314286 14.628571-7.314286 36.571429 0 51.2 14.628571 14.628571 36.571429 14.628571 51.2 0l131.657143-131.657143 256 256c14.628571 14.628571 36.571429 14.628571 51.2 0 21.942857-14.628571 21.942857-36.571429 7.314286-51.2M475.428571 822.857143C212.114286 822.857143 0 610.742857 0 347.42857100000003S212.114286-128 475.428571-128 950.857143 84.11428599999999 950.857143 347.42857100000003 738.742857 822.857143 475.428571 822.857143"  horiz-adv-x="1024" />

    
    <glyph glyph-name="qianbao" unicode="&#58892;" d="M864 704H672.1v64c0 52.39 0.06 95.52 0.06 96a32 32 0 0 1-32 32h-512.1a128.15 128.15 0 0 1-128-128v-94.08C0 673.28 0 672.64 0 672v-640c0-88.22 71.78-160 160-160h704c88.22 0 160 71.78 160 160V544c0 88.22-71.78 160-160 160zM64.06 768a64.07 64.07 0 0 0 64 64h480v-128h-544zM864-64H160a96.11 96.11 0 0 0-96 96V640h800a96.11 96.11 0 0 0 96-96v-32H512c-88.22 0-160-71.78-160-160v-64c0-88.22 71.78-160 160-160h448v-96a96.11 96.11 0 0 0-96-96z m96 256H512a96.11 96.11 0 0 0-96 96v64a96.11 96.11 0 0 0 96 96h448zM544.12 320m-64 0a64 64 0 1 1 128 0 64 64 0 1 1-128 0Z"  horiz-adv-x="1024" />

    
    <glyph glyph-name="shouye" unicode="&#58987;" d="M1003.991984 409.138277L587.671343 864.192385a98.244489 98.244489 0 0 1-144.673347 0L26.164329 409.138277a97.987976 97.987976 0 0 1 72.336673-164.42485h7.695391a119.278557 119.278557 0 0 1-2.052104-22.573146v-262.925852a87.214429 87.214429 0 0 1 87.214428-87.214429h648.977956a86.957916 86.957916 0 0 1 86.957916 86.957916V222.140281a119.53507 119.53507 0 0 1-2.052104 22.573146h7.438878a97.987976 97.987976 0 0 1 72.336673 164.42485z m-489.170341-229.322646a136.208417 136.208417 0 1 0 136.208417 136.208417 136.46493 136.46493 0 0 0-135.695391-136.208417z"  horiz-adv-x="1030" />

    
    <glyph glyph-name="mifenqia-copy" unicode="&#58880;" d="M837.824-120H170.048s-34.24 24.768-56.128 60.736c-11.648 26.56-13.888 54.272-13.888 54.272V811.712l34.816 41.216 26.304 31.04h512.064l250.752-250.752V-28.799999999999955s0.192-27.264-20.032-63.232c-32-31.488-66.112-27.968-66.112-27.968z m-631.872 64h604.224l49.792 52.736V606.72l-213.248 213.248H190.848l-26.816-31.68v-775.296l41.92-68.992zM252.032 739.968h64v-216h-64zM364.736 739.968h64v-216h-64zM480 739.968h64v-216h-64zM256 299.96799999999996h164.032V416H284.032L256 384zM791.232 132.41600000000005l-175.552-0.832 0.64-116.032 136 0.768 27.776 32.128zM615.68 416v-116.032h180.352V382.01599999999996L752 416zM428.736 17.408000000000015l-1.856 116.032-180.288-2.88 1.344-81.92 44.48-33.344zM254.784 277.76h166.4v-107.52h-166.4zM456 416h128v-400.448h-128zM615.68 280h180.288v-112H615.68z"  horiz-adv-x="1024" />

    
    <glyph glyph-name="richscan_icon" unicode="&#58882;" d="M96.96289062 481.65527344a24.40722656 24.40722656 0 0 1 24.41601563 24.41601562V774.62109375h268.54980469a24.41601563 24.41601563 0 1 1 0 48.83203125H96.96289062A24.40722656 24.40722656 0 0 1 72.546875 799.03710938v-292.96582032a24.40722656 24.40722656 0 0 1 24.41601563-24.41601562zM389.92871094-6.62109375H121.37890625V261.92871094a24.41601563 24.41601563 0 1 1-48.83203125 0v-292.96582031A24.40722656 24.40722656 0 0 1 96.96289062-55.453125h292.96582032a24.41601563 24.41601563 0 0 1 0 48.83203125zM927.03710938 823.453125H634.07128906a24.41601563 24.41601563 0 1 1 0-48.83203125h268.54980469v-268.54980469a24.41601563 24.41601563 0 1 1 48.83203125 0V799.03710938A24.3984375 24.3984375 0 0 1 927.03710938 823.453125zM927.03710938 286.34472656a24.3984375 24.3984375 0 0 1-24.41601563-24.41601562v-268.54980469H634.07128906a24.41601563 24.41601563 0 1 1 0-48.83203125h292.96582031a24.3984375 24.3984375 0 0 1 24.41601563 24.41601563V261.92871094a24.3984375 24.3984375 0 0 1-24.41601563 24.41601562zM927.03710938 408.41601563H96.96289062a24.41601563 24.41601563 0 0 1 1e-8-48.83203126h830.07421875a24.41601563 24.41601563 0 0 1 0 48.83203125z"  horiz-adv-x="1024" />

    
    <glyph glyph-name="weibo" unicode="&#58885;" d="M512 860.931507c262.312329 0 476.931507-214.619178 476.931507-476.931507s-214.619178-476.931507-476.931507-476.931507-476.931507 214.619178-476.931507 476.931507 214.619178 476.931507 476.931507 476.931507m0 28.054794C232.854795 888.986301 7.013699 663.145205 7.013699 384s225.841096-504.986301 504.986301-504.986301 504.986301 225.841096 504.986301 504.986301-225.841096 504.986301-504.986301 504.986301zM632.635616 382.59726c-22.443836 4.208219-11.221918 16.832877-11.221917 16.832877s21.041096 36.471233-4.20822 63.123288c-32.263014 32.263014-109.413699-4.208219-109.413698-4.20822-29.457534-9.819178-21.041096 4.208219-16.832877 28.054795 0 28.054795-9.819178 74.345205-86.969863 46.290411-78.553425-28.054795-145.884932-124.843836-145.884931-124.843836-46.290411-64.526027-40.679452-113.621918-40.679452-113.621917 11.221918-109.413699 124.843836-140.273973 213.216438-147.287672 92.580822-7.013699 217.424658 32.263014 255.29863 116.427398 37.873973 82.761644-30.860274 115.024658-53.30411 119.232876zM437.654795 177.79726c-92.580822-4.208219-165.523288 43.484932-165.523288 106.608219s74.345205 113.621918 165.523288 119.232877c92.580822 4.208219 166.926027-35.068493 166.926027-98.191781-1.40274-64.526027-75.747945-123.441096-166.926027-127.649315z m-18.235617 182.356165c-92.580822-11.221918-82.761644-99.594521-82.761644-99.594521s-1.40274-28.054795 25.249315-42.082192c54.706849-30.860274 109.413699-12.624658 137.468493 25.249315 28.054795 36.471233 12.624658 127.649315-79.956164 116.427398z m-23.846575-124.843836c-16.832877-2.805479-30.860274 8.416438-30.860274 22.443836 0 15.430137 12.624658 30.860274 29.457534 32.263013 19.638356 1.40274 32.263014-9.819178 32.263014-25.249315 0-14.027397-14.027397-28.054795-30.860274-29.457534z m54.706849 47.693151c-5.610959-4.208219-12.624658-4.208219-15.430137 1.402739-2.805479 5.610959-1.40274 14.027397 4.208219 18.235617 7.013699 5.610959 14.027397 4.208219 16.832877-1.40274 2.805479-5.610959 0-14.027397-5.610959-18.235616z m227.243836 138.871233c7.013699 0 14.027397 5.610959 15.430137 12.624657v1.40274c11.221918 105.205479-82.761644 86.969863-82.761644 86.969863-8.416438 0-15.430137-7.013699-15.430137-15.430137 0-8.416438 7.013699-15.430137 15.430137-15.430137 67.331507 15.430137 53.30411-54.706849 53.304109-54.706849-1.40274-8.416438 5.610959-15.430137 14.027398-15.430137z m-11.221918 182.356164c-32.263014 8.416438-65.928767 1.40274-75.747945-1.40274-1.40274 0-1.40274-1.40274-1.40274-1.402739-9.819178-2.805479-15.430137-11.221918-15.430137-22.443836 0-12.624658 9.819178-22.443836 22.443836-22.443836 0 0 11.221918 1.40274 19.638356 4.208219 8.416438 2.805479 75.747945 2.805479 109.413698-56.109589 18.235616-42.082192 8.416438-71.539726 7.013699-75.747945 0 0-4.208219-11.221918-4.208219-22.443835 0-12.624658 9.819178-21.041096 22.443835-21.041096 9.819178 0 18.235616 1.40274 21.041096 19.638356 33.665753 127.649315-46.290411 185.161644-105.205479 199.189041z m0 0"  horiz-adv-x="1024" />

    
    <glyph glyph-name="xinxi" unicode="&#58910;" d="M287 337h382v-56H287zM287 487h450v-56H287zM511.3-92.2c-86.5 0-171.1 23.4-244.8 67.7-1.9 0.2-7.9 0.3-21.8-3-13.1-3.1-28.9-8.2-44.1-13.2-20.2-6.6-41.2-13.3-59.4-16.8-18.1-3.4-44.2-6-61.5 11.5-25.4 25.6-11 69.9 5.6 121.1 5 15.3 10.1 31.1 13.3 44.2 3.4 14.1 3.3 20 3.1 21.9-43.4 73.2-66.3 157-66.3 242.4 0 64.2 12.6 126.6 37.4 185.3 24 56.7 58.3 107.6 102 151.3s94.6 78 151.3 102c58.7 24.8 121 37.4 185.3 37.4S638 847 696.7 822.2c56.7-24 107.6-58.3 151.3-102s78-94.6 102-151.3c24.8-58.7 37.4-121 37.4-185.3S974.8 257 950 198.3c-24-56.7-58.3-107.6-102-151.3s-94.6-78-151.3-102c-58.8-24.6-121.1-37.2-185.4-37.2zM264.6 31.5c11.1 0 21-2.1 29.4-7.2 65.3-39.6 140.4-60.5 217.2-60.5 56.7 0 111.7 11.1 163.5 33 50 21.2 94.9 51.4 133.5 90s68.9 83.5 90 133.5c21.9 51.8 33 106.8 33 163.5s-11.1 111.7-33 163.5c-21.2 50-51.4 94.9-90 133.5s-83.5 68.9-133.5 90c-51.8 21.9-106.8 33-163.5 33s-111.7-11.1-163.5-33c-50-21.2-94.9-51.4-133.5-90s-68.9-83.5-90-133.5c-21.9-51.8-33-106.8-33-163.5 0-75.9 20.5-150.3 59.2-215.1 15.6-26 2.8-65.3-12-110.8-5.1-15.6-10.4-31.8-13.6-45.3-1.8-7.5-2.6-12.7-2.9-16.3 3.6 0.3 8.8 1.1 16.2 2.9 13.4 3.2 29.6 8.4 45.1 13.4 30.8 9.9 58.6 18.9 81.4 18.9z"  horiz-adv-x="1024" />

    
    <glyph glyph-name="gongjuxiang" unicode="&#58991;" d="M847.496 654.539H729.861v77.992c0 41.355-33.645 75-75 75h-302.04c-41.355 0-75-33.645-75-75v-77.992H177.504c-57.897 0-105-47.103-105-105V79.57c0-57.897 47.103-105 105-105h669.991c57.897 0 105 47.103 105 105V549.539c0.001 57.897-47.102 105-104.999 105z m-519.675 77.992c0 13.785 11.215 25 25 25h302.041c13.785 0 25-11.215 25-25v-77.992H327.821v77.992zM902.496 79.57c0-30.327-24.673-55-55-55H177.504c-30.327 0-55 24.673-55 55V313.413h353.588v-11.999c0-20.71 16.789-37.498 37.498-37.498 20.71 0 37.498 16.788 37.498 37.498v11.999h351.407V79.57z m0 280.341H551.089v58.497c0 20.71-16.789 37.498-37.498 37.498-20.71 0-37.498-16.788-37.498-37.498v-58.497H122.504V549.539c0 30.327 24.673 55 55 55h669.991c30.327 0 55-24.673 55-55v-189.628z"  horiz-adv-x="1024" />

    
    <glyph glyph-name="xiaohuoche" unicode="&#58887;" d="M1024 795.496a30.864 30.864 0 0 1-30.856 30.856h-568.36a30.864 30.864 0 0 1-30.856-30.856V705.6l-208.168 0.688h-0.104a30.856 30.856 0 0 1-26.464-15.008L4.4 433.304A30.976 30.976 0 0 1 0 417.392v-237c0-65.456 53.28-118.736 118.768-118.736h48.416c0.488-66.248 54.488-120.008 120.832-120.008s120.344 53.76 120.832 120.008h213.52c0.496-66.248 54.48-120.008 120.832-120.008s120.344 53.76 120.832 120.008h41.176c65.496 0 118.776 53.28 118.776 118.736v175.28c0 0.704-0.168 1.36-0.2 2.048 0.04 0.696 0.2 1.352 0.2 2.056v435.72z m-61.72-30.864v-374H455.848l-0.2 12.88v361.12H962.28zM288.016 3.368c-32.624 0-59.16 26.576-59.16 59.184s26.536 59.136 59.16 59.136c32.624 0 59.16-26.52 59.16-59.136s-26.528-59.184-59.16-59.184z m455.192 0c-32.608 0-59.16 26.576-59.16 59.184s26.544 59.136 59.16 59.136 59.168-26.52 59.168-59.136-26.552-59.184-59.168-59.184zM962.28 180.392c0-31.464-25.584-57.016-57.056-57.016h-57.72c-20.992 35.84-59.832 60.032-104.296 60.032-44.72 0-83.752-24.448-104.656-60.624a31.256 31.256 0 0 1-5.912 0.592H392.312c-21 35.84-59.832 60.032-104.296 60.032s-83.296-24.184-104.288-60.032h-64.96c-31.464 0-57.048 25.552-57.048 57.016v228.44l141.352 235.672 187.016-0.632 3.832-241.184v-42.912c0-2.736 0.472-5.336 1.136-7.856 1.888-15.24 14.76-27.104 30.48-27.104H962.28v-144.424zM250.24 584.2a30.904 30.904 0 0 1-42.216-11.024l-88.096-150.448a30.856 30.856 0 1 1 53.256-31.192l88.088 150.448A30.832 30.832 0 0 1 250.24 584.2z"  horiz-adv-x="1024" />

    
    <glyph glyph-name="gengduo" unicode="&#58890;" d="M224 736c-19.2 0-32-12.8-32-32v-160c0-19.2 12.8-32 32-32h160c19.2 0 32 12.8 32 32V704c0 19.2-12.8 32-32 32H224z m0 64h160c54.4 0 96-41.6 96-96v-160c0-54.4-41.6-96-96-96H224c-54.4 0-96 41.6-96 96V704c0 54.4 41.6 96 96 96z m0-480c-19.2 0-32-12.8-32-32v-160c0-19.2 12.8-32 32-32h160c19.2 0 32 12.8 32 32V288c0 19.2-12.8 32-32 32H224z m0 64h160c54.4 0 96-41.6 96-96v-160c0-54.4-41.6-96-96-96H224c-54.4 0-96 41.6-96 96V288c0 54.4 41.6 96 96 96z m416 352c-19.2 0-32-12.8-32-32v-160c0-19.2 12.8-32 32-32h160c19.2 0 32 12.8 32 32V704c0 19.2-12.8 32-32 32H640z m0 64h160c54.4 0 96-41.6 96-96v-160c0-54.4-41.6-96-96-96H640c-54.4 0-96 41.6-96 96V704c0 54.4 41.6 96 96 96z m0-480c-19.2 0-32-12.8-32-32v-160c0-19.2 12.8-32 32-32h160c19.2 0 32 12.8 32 32V288c0 19.2-12.8 32-32 32H640z m0 64h160c54.4 0 96-41.6 96-96v-160c0-54.4-41.6-96-96-96H640c-54.4 0-96 41.6-96 96V288c0 54.4 41.6 96 96 96z"  horiz-adv-x="1024" />

    
    <glyph glyph-name="dianshi" unicode="&#59375;" d="M952.80128 786.88256H70.4c-17.7664 0-31.68256-13.91616-31.68256-31.68256v-607.20128c0-17.7664 13.91616-31.68256 31.68256-31.68256h417.59744v-77.11744H316.00128c-13.59872 0-24.00256-10.39872-24.00256-24.00256s10.39872-24.00256 24.00256-24.00256h392.80128c11.20256 0 24.00256 10.39872 24.00256 24.00256s-10.39872 24.00256-24.00256 24.00256h-172.8v77.11744h418.40128c14.9504 0 30.08 10.88 30.08 31.68256V755.2c-0.00512 17.7664-13.92128 31.68256-31.68256 31.68256zM922.72128 721.92v-546.24256H102.08256V721.92h820.63872zM733.59872 233.6h93.59872c11.20256 0 24.00256 10.39872 24.00256 24.00256S840.80128 281.6 827.19744 281.6h-93.59872c-13.59872 0-24.00256-10.39872-24.00256-24.00256s10.40384-23.99744 24.00256-23.99744z"  horiz-adv-x="1024" />

    
    <glyph glyph-name="jiadian" unicode="&#59248;" d="M814.3872 896H209.6128C133.9392 896 72.704 834.7648 72.704 759.0912v-750.1824c0-75.5712 61.3376-136.9088 136.9088-136.9088h604.7744c75.5712 0 136.9088 61.3376 136.9088 136.9088V759.0912C951.296 834.7648 890.0608 896 814.3872 896zM669.4912 809.984c25.8048 0 46.7968-20.992 46.7968-46.7968s-20.992-46.7968-46.7968-46.7968c-25.8048 0-46.7968 20.992-46.7968 46.7968S643.6864 809.984 669.4912 809.984zM512 88.064c-151.7568 0-275.2512 123.4944-275.2512 275.2512S360.2432 638.5664 512 638.5664c151.7568 0 275.2512-123.4944 275.2512-275.2512S663.7568 88.064 512 88.064z m292.1472 626.9952c-25.8048 0-46.7968 20.992-46.7968 46.7968 0 25.8048 20.992 46.7968 46.7968 46.7968 25.8048 0 46.7968-20.8896 46.7968-46.7968 0-25.8048-20.992-46.7968-46.7968-46.7968zM512 578.7648c-118.784 0-215.4496-96.6656-215.4496-215.4496S393.216 147.8656 512 147.8656s215.4496 96.6656 215.4496 215.4496S630.784 578.7648 512 578.7648zM590.848 362.496c-65.3312-22.016-93.5936-38.5024-159.3344-5.5296-40.8576 20.48-69.5296 5.5296-85.4016-8.704-1.024 7.4752-1.6384 15.1552-1.6384 22.9376 0 92.5696 75.0592 167.5264 167.5264 167.5264 92.5696 0 167.5264-75.0592 167.5264-167.5264 0-11.4688-1.1264-22.6304-3.3792-33.3824-22.016 18.944-51.2 36.1472-85.2992 24.6784z"  horiz-adv-x="1024" />

    
    <glyph glyph-name="wenjian" unicode="&#58913;" d="M921.6 632.627V793.6a51.2 51.2 0 0 1-51.2 51.2H153.6a51.2 51.2 0 0 1-51.2-51.2v-160.973h315.392a25.6 25.6 0 0 0 12.442-3.174l81.203-44.903 97.28 45.67 10.854 2.407H921.6z m0-51.2H625.254L521.37 532.685a25.6 25.6 0 0 0-23.245 0.768l-86.887 47.974H102.4V-25.6a51.2 51.2 0 0 1 51.2-51.2h716.8a51.2 51.2 0 0 1 51.2 51.2V581.427zM153.6 896h716.8a102.4 102.4 0 0 0 102.4-102.4v-819.2A102.4 102.4 0 0 0 870.4-128H153.6A102.4 102.4 0 0 0 51.2-25.6V793.6A102.4 102.4 0 0 0 153.6 896zM512 384a51.2 51.2 0 1 0 0 102.4 51.2 51.2 0 0 0 0-102.4z"  horiz-adv-x="1024" />

    
    <glyph glyph-name="huangguan" unicode="&#58906;" d="M88.937 580.306c0-23.788-19.278-43.064-43.065-43.064-23.789 0-43.066 19.277-43.066 43.064 0 23.79 19.278 43.065 43.065 43.065 23.788 0.003 43.065-19.275 43.065-43.065zM556.55 713.67c0-23.789-19.288-43.065-43.064-43.065-23.79 0-43.068 19.277-43.068 43.065s19.277 43.066 43.068 43.066c23.776 0.001 43.065-19.279 43.065-43.065z m463.363-133.363c0-23.788-19.308-43.064-43.087-43.064-23.779 0-43.048 19.277-43.048 43.064 0 23.79 19.27 43.065 43.048 43.065 23.78 0.003 43.087-19.275 43.087-43.065zM88.937 525.471l59.92-383.203h709l75.924 383.203-212.659-136.163-207.635 250.948-211.019-239.701z m772.282-475.193c0-16.319-13.234-29.555-29.555-29.555H178.413c-16.322 0-29.555 13.236-29.555 29.557 0 16.32 13.234 29.553 29.555 29.553h653.252c16.32 0 29.554-13.232 29.554-29.553z"  horiz-adv-x="1024" />

    
    <glyph glyph-name="huangguan1" unicode="&#58883;" d="M907.2 638.8c0.8-0.3 1.4-0.7 2.2-1l0.4 3.3-2.6-2.3z m-803.1 0.5c0.4 0.2 0.9 0.3 1.3 0.6l-1.7 1.4 0.4-2z m769.7-40.1c-7.1 0-13.5-2.8-18.2-7.3-0.3-0.3-0.4-0.2-0.3 0.2L679.6 433.6 536.5 720.3c-6.7 8.9-17.3 14.5-29.3 14.5-14 0-26.2-7.9-32.4-19.4L334.1 433.6 152.8 597.2c-3.8 2.1-8.2 3.3-12.9 3.3-14.5 0-26.2-11.8-26.2-26.2 0-1.2-0.2-1.8-0.6-1.8l56.1-419.1c0 1.6-0.1 3.2-0.3 4.9 3.4-29.2 23.1-53.4 49.6-63.4-2.4 0.9-4.8 1.6-7 2 56.3-21.1 166.8-34.8 294.1-33.6 127.9 1.1 239.4 16.9 296.5 39.2-2.1-0.4-4.3-1-6.7-1.9 26.5 10.1 46.2 34.3 49.6 63.5-0.4-3.4-0.4-6.6-0.2-9.5l55.7 416.9c-0.2 0.2-0.4 0.8-0.4 1.7 0 14.2-11.7 26-26.3 26z"  horiz-adv-x="1024" />

    
    <glyph glyph-name="qianzi" unicode="&#59028;" d="M316.72566-128a72.606703 72.606703 0 0 0-28.026188 5.663323l-4.429009 2.032988-81.972968 41.821461a72.606703 72.606703 0 0 0-31.801736 97.656016l1.742561 3.267301 250.783553 429.904291c-73.986231 90.976199-94.388714 182.605859-61.352664 272.347744C395.939573 817.04885 477.622114 874.553359 604.393418 895.754517A14.521341 14.521341 0 0 0 620.003859 874.916393L538.176105 706.105808a72.606703 72.606703 0 0 1 33.68951-96.784736l37.900699-17.280395a72.606703 72.606703 0 0 1 94.388714 31.874343l85.24027 159.734747a14.521341 14.521341 0 0 0 24.904099 1.161707c57.141476-87.128044 61.933518-181.516758 14.521341-280.189268-47.412177-97.002556-133.088087-141.873498-255.139955-133.523727l-189.939136-454.227536a72.02585 72.02585 0 0 0-39.42544-39.20762 73.260164 73.260164 0 0 0-27.590547-5.663323zM581.086666 861.484153c-100.923318-22.435471-163.945936-70.646322-192.117337-146.810754-30.785242-82.989462-10.237545-165.252857 62.804799-251.509621a14.521341 14.521341 0 0 0 1.452134-16.699541L197.578059 8.210175l-1.379527-2.541234a43.564022 43.564022 0 0 1 19.313383-58.085363L300.534365-95.61741a43.564022 43.564022 0 0 1 56.415408 23.669785l194.077718 463.956834a14.521341 14.521341 0 0 0 14.521341 8.858018c116.170725-10.745792 193.424258 27.372727 236.480033 116.170725 39.64326 82.045575 39.933687 157.556546 0.580853 230.090643L729.567375 610.264959a101.649385 101.649385 0 0 0-131.853774-44.653122l-38.263732 17.425609a101.649385 101.649385 0 0 0-47.412178 135.701928zM577.456331 753.300165a94.243501 91.194019 90 1 1 182.388039 0 94.243501 91.194019 90 1 1-182.388039 0ZM668.650351 651.795994a100.124644 100.124644 0 0 0-98.45469 101.649384 98.527296 98.527296 0 1 0 196.909379 0 100.124644 100.124644 0 0 0-98.454689-101.649384z m0 188.777428a85.603303 85.603303 0 0 1-83.933349-87.128044 84.005956 84.005956 0 1 1 167.866698 0A85.603303 85.603303 0 0 1 668.650351 840.282995zM437.18018 82.55944a15.102194 15.102194 0 0 0-6.098963 1.30692l-94.388714 43.564022a14.550383 14.550383 0 0 0 12.197926 26.42884l94.388714-43.564022a14.521341 14.521341 0 0 0-6.098963-27.73576zM404.797591 1.965999a14.521341 14.521341 0 0 0-6.461997 1.524741l-74.930118 37.029418a14.521341 14.521341 0 1 0 12.923993 25.9932l74.930118-37.029419a14.521341 14.521341 0 0 0-6.461996-27.51794zM476.533014 166.638002a14.521341 14.521341 0 0 0-6.38939 1.524741l-68.395515 33.616903A14.521341 14.521341 0 1 0 414.526889 227.772846l68.395514-33.544297a14.521341 14.521341 0 0 0-6.389389-27.590547z"  horiz-adv-x="1024" />

    
    <glyph glyph-name="fuwu" unicode="&#58898;" d="M892.219077 253.833846a30.129231 30.129231 0 0 0-25.009231 13.292308 30.148923 30.148923 0 0 0 8.073846 41.924923c72.979692 49.309538 151.729231 160.531692 151.729231 254.129231 0 149.858462-121.895385 271.753846-271.734154 271.753846-71.502769 0-139.106462-27.766154-190.385231-78.099692a30.188308 30.188308 0 0 0-42.338461 0A269.922462 269.922462 0 0 1 332.209231 834.953846C182.350769 834.953846 60.416 712.999385 60.416 563.180308c0-103.601231 57.580308-196.765538 150.252308-243.160616a30.227692 30.227692 0 0 0-27.017846-54.035692C70.380308 322.697846 0 436.558769 0 563.180308 0 746.318769 149.031385 895.350154 332.209231 895.350154c77.942154 0 152.024615-26.899692 211.495384-76.307692A329.688615 329.688615 0 0 0 755.298462 895.350154c183.138462 0 332.150154-149.011692 332.150153-332.169846 0-114.963692-90.683077-244.932923-178.294153-304.167385a30.129231 30.129231 0 0 0-16.935385-5.198769zM843.776 150.803692a92.494769 92.494769 0 0 0-65.851077 27.293539l-115.2 115.2a30.188308 30.188308 0 1 0 42.692923 42.712615l115.239385-115.2c12.386462-12.386462 33.870769-12.347077 46.237538 0.039385 12.740923 12.701538 12.740923 33.476923 0 46.217846L536.162462 588.544a30.208 30.208 0 1 0 42.141538 43.303385l331.027692-321.772308c36.568615-36.608 36.568615-95.665231 0.275693-131.977846a92.553846 92.553846 0 0 0-65.831385-27.273846zM765.952 49.860923c-23.827692 0-47.655385 9.058462-65.831385 27.234462l-58.88 58.919384a30.188308 30.188308 0 1 0 42.712616 42.712616l58.88-58.919385a32.748308 32.748308 0 0 1 55.867077 23.138462c0 8.743385-3.426462 16.935385-9.609846 23.118769l-156.23877 156.278154a30.188308 30.188308 0 1 0 42.732308 42.732307l156.219077-156.258461a92.573538 92.573538 0 0 0 27.313231-65.870769c0-24.871385-9.728-48.265846-27.313231-65.87077a92.888615 92.888615 0 0 0-65.851077-27.214769zM676.864-39.266462a92.494769 92.494769 0 0 0-65.831385 27.273847l-14.395077 14.454153a30.188308 30.188308 0 1 0 42.732308 42.653539l14.375385-14.414769c12.406154-12.327385 33.870769-12.366769 46.257231 0.019692a32.787692 32.787692 0 0 1 0 46.276923l-31.035077 31.035077a30.188308 30.188308 0 1 0 42.732307 42.732308l31.015385-31.035077a93.282462 93.282462 0 0 0 0-131.721846 92.494769 92.494769 0 0 0-65.851077-27.273847zM588.8-127.350154a92.494769 92.494769 0 0 0-65.851077 27.273846l-14.395077 14.454154a30.188308 30.188308 0 1 0 42.732308 42.653539l14.375384-14.41477c12.406154-12.327385 33.870769-12.366769 46.257231 0.019693a32.787692 32.787692 0 0 1 0 46.276923l-12.504615 12.524307a30.188308 30.188308 0 1 0 42.732308 42.712616l12.484923-12.504616a93.282462 93.282462 0 0 0 0-131.721846 92.494769 92.494769 0 0 0-65.831385-27.273846zM249.442462 184.950154a92.672 92.672 0 0 0-65.851077 27.254154 93.302154 93.302154 0 0 0 0 131.702154l99.24923 99.24923c35.328 35.249231 96.571077 35.131077 131.66277 0a92.553846 92.553846 0 0 0 27.332923-65.851077c0-24.871385-9.747692-48.246154-27.332923-65.870769l-99.229539-99.209846a92.494769 92.494769 0 0 0-65.831384-27.273846z m99.229538 225.083077c-8.723692 0-16.935385-3.426462-23.118769-9.649231l-99.249231-99.190154a32.768 32.768 0 0 1 0-46.257231c12.406154-12.327385 33.870769-12.386462 46.276923 0l99.209846 99.249231a32.492308 32.492308 0 0 1 0 46.217846 32.374154 32.374154 0 0 1-23.118769 9.609846zM338.412308 95.980308a92.672 92.672 0 0 0-65.851077 27.254154 93.302154 93.302154 0 0 0 0 131.702153l99.249231 99.249231c35.328 35.249231 96.492308 35.150769 131.741538 0.019692a93.302154 93.302154 0 0 0 0-131.702153l-99.308308-99.249231a92.494769 92.494769 0 0 0-65.831384-27.273846z m99.229538 225.083077c-8.743385 0-16.935385-3.446154-23.138461-9.629539l-99.229539-99.209846a32.768 32.768 0 0 1 0-46.257231c12.406154-12.327385 33.870769-12.386462 46.276923 0l99.268923 99.249231a32.768 32.768 0 0 1-23.177846 55.827692zM427.382154 6.971077a92.672 92.672 0 0 0-65.851077 27.273846 93.341538 93.341538 0 0 0 0 131.741539l99.288615 99.229538c35.111385 35.091692 96.354462 35.249231 131.682462 0.019692a93.282462 93.282462 0 0 0 0-131.702154l-99.288616-99.268923a92.494769 92.494769 0 0 0-65.831384-27.293538z m99.288615 225.102769c-8.743385 0-16.935385-3.387077-23.138461-9.570461l-99.288616-99.249231a32.787692 32.787692 0 0 1 0-46.276923c12.406154-12.327385 33.870769-12.386462 46.276923 0l99.268923 99.249231a32.768 32.768 0 0 1-23.118769 55.847384zM516.332308-81.979077a92.672 92.672 0 0 0-65.831385 27.254154 93.302154 93.302154 0 0 0 0 131.702154l99.288615 99.249231c35.111385 35.150769 96.413538 35.249231 131.682462 0.039384a93.302154 93.302154 0 0 0 0-131.702154l-99.229538-99.24923a92.612923 92.612923 0 0 0-65.910154-27.313231z m99.308307 225.083077c-8.743385 0-16.935385-3.387077-23.138461-9.570462l-99.288616-99.268923a32.768 32.768 0 0 1 0-46.25723c12.406154-12.327385 33.929846-12.288 46.316308 0.039384l99.249231 99.229539a32.768 32.768 0 0 1-23.138462 55.847384zM402.825846 466.904615a92.652308 92.652308 0 0 0-65.831384 27.254154 93.302154 93.302154 0 0 0 0 131.721846l186.072615 174.532923a30.188308 30.188308 0 1 0 41.294769-44.071384l-185.363692-173.863385c-12.032-12.051692-12.032-32.827077 0.708923-45.568 12.406154-12.327385 33.870769-12.406154 46.257231 0l111.556923 96.196923a30.286769 30.286769 0 0 0 42.594461-3.190154c10.850462-12.622769 9.452308-31.704615-3.190154-42.594461l-109.902769-94.660923c-15.950769-16.049231-39.286154-25.757538-64.196923-25.757539z"  horiz-adv-x="1102" />

    
    <glyph glyph-name="queren" unicode="&#59137;" d="M511.50848-128C229.4784-128 0 101.4784 0 383.488 0 665.51808 229.4784 894.99648 511.50848 894.99648c282.0096 0 511.488-229.4784 511.488-511.50848C1022.99648 101.4784 793.51808-128 511.50848-128z m-83.64032 276.48l384.94208 384.4096-44.48256 44.40064-340.45952-340.00896-170.92608 170.68032L212.48 363.52l215.38816-215.04z"  horiz-adv-x="1024" />

    
    <glyph glyph-name="daifukuan" unicode="&#58995;" d="M781.6 96.7c-89.2 0-161.7 72.5-161.7 161.7s72.5 161.7 161.7 161.7 161.7-72.5 161.7-161.7-72.5-161.7-161.7-161.7z m0 287.5c-69.4 0-125.8-56.4-125.8-125.8s56.4-125.8 125.8-125.8S907.4 189 907.4 258.4 851 384.2 781.6 384.2zM601.9 132.6H134.7c-29.7 0-53.9 24.2-53.9 53.9V617.8c0 29.7 24.2 53.9 53.9 53.9h682.9c29.7 0 53.9-24.2 53.9-53.9v-179.7c0-9.9-8-18-18-18s-18 8-18 18V617.8c0 9.9-8.1 18-18 18H134.7c-9.9 0-18-8.1-18-18v-431.3c0-9.9 8.1-18 18-18h467.2c9.9 0 18-8 18-18s-8-17.9-18-17.9zM98.8 528h754.7v-35.9H98.8zM458.2 276.4H206.6c-9.9 0-18 8-18 18 0 9.9 8 18 18 18h251.6c9.9 0 18-8 18-18s-8.1-18-18-18zM781.6 222.5c-9.9 0-18 8-18 18v71.9c0 9.9 8 18 18 18s18-8 18-18v-71.9c0-10-8-18-18-18zM853.5 222.5h-71.9c-9.9 0-18 8-18 18s8 18 18 18h71.9c9.9 0 18-8 18-18s-8-18-18-18z"  horiz-adv-x="1024" />

    
    <glyph glyph-name="yonghu" unicode="&#58914;" d="M370.269091 373.946182c-83.176727 42.821818-138.752 137.262545-138.752 248.459636C231.517091 773.492364 338.478545 896 470.434909 896s238.964364-122.507636 238.964364-273.594182c0-110.871273-55.389091-205.172364-138.24-248.133818 204.8-51.060364 359.936-254.603636 370.082909-501.573818L0-128c13.032727 243.758545 167.284364 449.954909 370.269091 501.946182zM674.676364 863.604364c56.32-62.510545 91.322182-150.062545 91.322181-246.970182 0-89.553455-29.835636-171.054545-78.801454-232.261818 152.389818-75.077818 267.636364-230.260364 305.198545-419.281455L1210.181818-34.722909c-9.216 224.628364-150.341818 409.739636-336.616727 456.145454 75.310545 39.098182 125.719273 124.881455 125.719273 225.745455C999.330909 784.570182 902.050909 896 781.963636 896c-39.982545 0-77.451636-12.381091-109.661091-33.978182l2.373819 1.582546z"  horiz-adv-x="1210" />

    
    <glyph glyph-name="huhuan" unicode="&#58921;" d="M512.8 844.8c254.4 0 460.8-206.4 460.8-460.8s-206.4-460.8-460.8-460.8S52 130.4 52 384c0 254.4 206.4 460.8 460.8 460.8m0 51.2C230.4 896 0.8 666.4 0.8 384s229.6-512 512-512 512 229.6 512 512-229.6 512-512 512z m0 0M240.8 452h544.8c11.2 0 17.6 13.6 8.8 22.4l-38.4 38.4-99.2 99.2c-8 8-22.4 2.4-22.4-8.8v-76.8c0-7.2-5.6-12.8-12.8-12.8H240.8c-7.2 0-12.8-5.6-12.8-12.8v-34.4c-0.8-8.8 5.6-14.4 12.8-14.4z m544-135.2H240c-11.2 0-17.6-13.6-8.8-22.4l38.4-38.4 99.2-99.2c8-8 22.4-2.4 22.4 8.8v77.6c0 7.2 5.6 12.8 12.8 12.8h380.8c7.2 0 12.8 5.6 12.8 12.8V304c0.8 7.2-5.6 12.8-12.8 12.8z m0 0"  horiz-adv-x="1024" />

    
    <glyph glyph-name="icon-test" unicode="&#58886;" d="M512-128C229.23264-128 0 101.23264 0 384S229.23264 896 512 896s512-229.23264 512-512-229.23264-512-512-512z m0 53.90336c253.00992 0 458.09664 205.08672 458.09664 458.09664S765.00992 842.09664 512 842.09664 53.90336 637.00992 53.90336 384 258.99008-74.09664 512-74.09664z m24.24832 765.82912h51.75296v-577.20832h-66.29376V610.9184c-36.39296-37.19168-81.65376-63.05792-135.82336-79.21664v66.27328a343.57248 343.57248 0 0 1 80.83456 34.77504c27.50464 17.77664 50.13504 37.19168 69.5296 59.00288z"  horiz-adv-x="1024" />

    
    <glyph glyph-name="sousuo" unicode="&#59023;" d="M403.261166 83.656943C179.387095 83.656943 0.287838 262.7562 0.287838 486.63027S179.387095 896 403.261166 896s402.973328-179.099257 402.973327-402.973328-179.099257-409.36973-402.973327-409.369729z m0 767.568243C204.972703 851.225186 45.062652 691.315135 45.062652 493.026672c0-198.288463 159.910051-358.198513 358.198514-358.198513C601.549628 128.431757 767.856081 288.341808 767.856081 486.63027S601.549628 851.225186 403.261166 851.225186zM639.60822 200.327316l30.70273 32.62165 349.691299-328.327316-30.70273-32.62165z"  horiz-adv-x="1024" />

    
    <glyph glyph-name="sousuo1" unicode="&#58957;" d="M950.82-3.62L782.61 164.46c64.647 74.732 100.073 169.116 100.073 268.8 0 109.9-42.796 213.205-120.501 290.78S581.172 844.67 471.402 844.67c-109.899 0-213.204-42.795-290.78-120.5-77.705-77.705-120.5-181.01-120.5-290.78 0-109.9 42.795-213.204 120.5-290.78 77.705-77.705 181.01-120.5 290.78-120.5 90.764 0 177.002 29.22 248.113 83.134l170.15-170.15c8.404-8.403 19.523-12.67 30.642-12.67s22.11 4.267 30.642 12.67c16.809 16.938 16.809 44.348-0.129 61.286zM146.618 433.39c0 179.07 145.713 324.654 324.655 324.654 179.07 0 324.654-145.713 324.654-324.654 0.13-179.07-145.454-324.784-324.525-324.784S146.618 254.32 146.618 433.39z m0 0"  horiz-adv-x="1024" />

    
    <glyph glyph-name="gouwuche1" unicode="&#58884;" d="M357.44 129.60000000000002q18.24 0 34.56-6.72t28.8-18.72 19.2-28.32 6.72-34.56-6.72-34.56-19.2-28.32-28.8-19.2-34.56-7.2q-19.2 0-35.04 7.2t-28.32 19.2-19.2 28.32-6.72 34.56 6.72 34.56 19.2 28.32 28.32 18.72 35.04 6.72zM756.8 127.67999999999995q18.24 0 35.04-6.72t28.8-18.72 19.2-28.32 7.2-34.56-7.2-34.56-19.2-28.32-28.8-19.2-35.04-7.2-34.56 7.2-28.32 19.2-19.2 28.32-7.2 34.56 7.2 34.56 19.2 28.32 28.32 18.72 34.56 6.72zM918.08 672.96q26.88 0 41.76-7.2t21.12-17.76 5.76-22.56-3.36-20.64-12-35.52-20.64-59.04-22.56-63.84-16.8-49.92q-12.48-38.4-31.68-53.28t-47.04-14.88l-32.64 0-62.4 0-81.6 0-89.28 0-238.08 0 14.4-86.4 483.84 0q46.08 0 46.08-39.36 0-19.2-9.12-33.12t-36-13.92l-46.08 0-89.28 0-110.4 0-112.32 0-92.16 0-52.8 0q-19.2 0-32.16 8.64t-21.6 22.56-13.92 30.24-8.16 30.72q-0.96 5.76-5.28 27.84t-10.56 55.2-13.92 73.92-15.36 82.08q-18.24 96.96-41.28 216l-72 0q-14.4 0-24 7.2t-15.84 17.28-8.64 21.6-2.4 21.12q0 19.2 12.96 31.68t35.04 12.48l21.12 0 19.2 0 24 0 32.64 0q19.2 0 30.72-5.76t18.24-14.4 9.6-18.24 4.8-16.32q1.92-7.68 3.84-21.6t3.84-28.32q2.88-17.28 5.76-36.48l656.64 0z"  horiz-adv-x="1024" />

    
    <glyph glyph-name="wodedangxuan" unicode="&#58888;" d="M859.4-15.600000000000023H162.8c-14.4 0-28.8 7.2-37.8 18-9 12.6-12.6 27-9 41.4 36 183.6 185.4 320.4 365.4 334.8 60.3 0 125.55-7.65 190.8-34.2 18.9-7.65 25.2-12.6 36-18 104.4-59.4 176.4-162 199.8-282.6 3.6-14.4 0-28.8-10.8-41.4-9-10.8-23.4-18-37.8-18zM163.7 13.649999999999977c-5.85 0-11.25 2.25-14.4 6.3-0.45 0.45-0.45 0.9-0.9 1.35-4.5 4.5-4.95 12.15-4.05 16.65 33.3 171 173.25 299.25 340.65 311.4h13.5c80.55 0 157.95-25.2 195.75-49.05C793.25 240.89999999999998 859.4 147.75 880.1 37.950000000000045c0.9-6.3-0.45-12.15-4.95-18-3.15-4.05-8.55-6.3-14.4-6.3H163.7zM498.5 338.54999999999995c78.3 0 153.45-24.3 189.9-47.25h0.45c96.3-57.15 160.2-147.6 180-254.7 0.45-2.25 0.45-5.4-3.15-9.45-0.45-0.9-2.7-1.8-5.4-1.8H163.7c-2.7 0-4.95 0.9-5.4 1.8-0.45 0.9-1.35 1.8-2.25 2.25-0.9 0.9-1.8 3.6-0.9 6.75 32.4 166.05 167.85 290.25 330.3 302.4 4.05-0.45 8.55 0 13.05 0m0 22.5c-4.5 0-9.45 0-13.95-0.45C311.75 348 167.75 216.60000000000002 133.55 40.200000000000045c-1.8-9 0-19.8 7.2-27 5.4-7.2 14.4-10.8 23.4-10.8H860.75c9 0 18 3.6 23.4 10.8 5.4 7.2 9 16.2 7.2 27-21.6 115.2-90 209.7-190.8 270-38.25 23.85-116.55 50.85-202.05 50.85zM512 362.4c-113.4 0-207 93.6-207 207S398.6 776.4 512 776.4s207-93.6 207-207S625.4 362.4 512 362.4zM512 391.65c-98.1 0-177.75 79.65-177.75 177.75S413.9 747.15 512 747.15s177.75-79.65 177.75-177.75-79.65-177.75-177.75-177.75zM512 735.9c91.8 0 166.5-74.7 166.5-166.5S603.8 402.9 512 402.9s-166.5 74.7-166.5 166.5 74.7 166.5 166.5 166.5m0 22.5c-104.4 0-189-84.6-189-189s84.6-189 189-189 189 84.6 189 189S616.4 758.4 512 758.4z"  horiz-adv-x="1024" />

    
    <glyph glyph-name="shezhi" unicode="&#58889;" d="M881 384c0 52.4 32.9 96.8 79 114.5-11 43.2-28 83.9-50.2 121.3C864.6 599.7 810 607.9 773 645c-37 37-45.2 91.7-25.1 136.8C710.4 804 669.7 821 626.5 832c-17.8-46.1-62.2-79-114.5-79-52.4 0-96.8 32.9-114.5 79-43.2-11-83.9-28-121.3-50.2 20.1-45.2 11.9-99.8-25.1-136.8-37-37-91.7-45.2-136.8-25.2C92 582.4 75 541.7 64 498.5c46.1-17.8 79-62.2 79-114.5 0-52.4-32.9-96.8-79-114.5 11-43.2 28-83.9 50.2-121.3C159.4 168.29999999999995 214 160.10000000000002 251 123c37-37 45.2-91.7 25.1-136.8C313.6-36 354.3-53 397.5-64c17.8 46.1 62.2 79 114.5 79 52.4 0 96.8-32.9 114.5-79 43.2 11 83.9 28 121.3 50.2-20.1 45.2-11.9 99.8 25.1 136.8 37 37 91.7 45.2 136.8 25.2C932 185.60000000000002 949 226.29999999999995 960 269.5c-46.1 17.7-79 62.1-79 114.5zM512 261c-67.9 0-123 55.1-123 123s55.1 123 123 123 123-55.1 123-123-55.1-123-123-123z"  horiz-adv-x="1024" />

    


  </font>
</defs>
</svg>
